<svg xmlns="http://www.w3.org/2000/svg" width="247.471" height="55" viewBox="0 0 247.471 55">
  <g id="Grupo_4" data-name="Grupo 4" transform="translate(-116.147 -65.293)">
    <g id="Grupo_1" data-name="Grupo 1" transform="translate(178.357 65.579)">
      <path id="Caminho_1" data-name="Caminho 1" d="M311.147,125.275v-5.328a10.776,10.776,0,0,1,3.533-7.992,12.137,12.137,0,0,1,16.853-.029,10.67,10.67,0,0,1,3.59,8.021v5.328A10.876,10.876,0,0,1,331.5,133.3a11.816,11.816,0,0,1-16.766.029A10.88,10.88,0,0,1,311.147,125.275Zm6.081-.017a6.051,6.051,0,0,0,1.737,4.229,5.553,5.553,0,0,0,8.311,0,6,6,0,0,0,1.766-4.229v-5.293a5.837,5.837,0,0,0-1.766-4.142,5.609,5.609,0,0,0-8.311,0,5.885,5.885,0,0,0-1.737,4.142Z" transform="translate(-311.147 -95.029)" fill="#36abff"/>
      <path id="Caminho_2" data-name="Caminho 2" d="M396.466,125.275v-5.211a11.64,11.64,0,0,1,3.012-8.34q3.011-3.185,8.976-3.185a13.767,13.767,0,0,1,6.313,1.3q2.548,1.3,2.548,2.925a3.315,3.315,0,0,1-.723,1.969,2.092,2.092,0,0,1-1.709.985,9.492,9.492,0,0,1-2.056-.868,8.741,8.741,0,0,0-3.909-.869q-6.372,0-6.371,6.1v5.178q0,6.1,6.429,6.1a8.4,8.4,0,0,0,3.966-.927,8.378,8.378,0,0,1,2.114-.927,2.282,2.282,0,0,1,1.883.927,3.15,3.15,0,0,1,.724,1.969q0,1.622-2.664,3.011a13.882,13.882,0,0,1-6.486,1.39q-6.023,0-9.034-3.156A11.614,11.614,0,0,1,396.466,125.275Z" transform="translate(-369.247 -95.029)" fill="#36abff"/>
      <path id="Caminho_3" data-name="Caminho 3" d="M473.8,98.465V68.16a1.652,1.652,0,0,1,.926-1.39,3.86,3.86,0,0,1,2.085-.579,4.011,4.011,0,0,1,2.114.579,1.65,1.65,0,0,1,.955,1.39V80.049h7.065a1.421,1.421,0,0,1,1.216.665,2.968,2.968,0,0,1,0,3.185,1.42,1.42,0,0,1-1.216.666h-7.065v13.9a4,4,0,0,0,.9,2.953,4.507,4.507,0,0,0,3.156.868h2.027a2.474,2.474,0,0,1,1.911.753,2.82,2.82,0,0,1,0,3.707,2.471,2.471,0,0,1-1.911.753h-2.027Q473.8,107.5,473.8,98.465Z" transform="translate(-421.908 -66.191)" fill="#36abff"/>
      <path id="Caminho_4" data-name="Caminho 4" d="M526.439,129.155q0-4.632,3.475-6.457t10.077-1.824h2.548v-1.067a7.314,7.314,0,0,0-1.418-4.506,5.041,5.041,0,0,0-4.315-1.9,9.531,9.531,0,0,0-4.373.956,14.259,14.259,0,0,1-2.056.955,1.825,1.825,0,0,1-1.592-.955,3.857,3.857,0,0,1-.608-2.114q0-1.5,2.809-2.606a16.133,16.133,0,0,1,5.936-1.1q5.964,0,8.832,3.214a11.609,11.609,0,0,1,2.866,8.021V134.31a1.743,1.743,0,0,1-.839,1.419,3.517,3.517,0,0,1-2.114.608,3.189,3.189,0,0,1-1.969-.608,1.753,1.753,0,0,1-.811-1.419v-2.027q-3.88,4.517-8.744,4.516a7.919,7.919,0,0,1-5.531-1.969A7.27,7.27,0,0,1,526.439,129.155Zm6.139-.753a3.621,3.621,0,0,0,1.042,2.809,3.87,3.87,0,0,0,2.722.955,6.126,6.126,0,0,0,4.2-1.853,5.373,5.373,0,0,0,2-3.938v-2.143h-1.448a31.783,31.783,0,0,0-4.257.232,6.257,6.257,0,0,0-2.953,1.216A3.221,3.221,0,0,0,532.578,128.4Z" transform="translate(-457.755 -95.029)" fill="#36abff"/>
      <path id="Caminho_5" data-name="Caminho 5" d="M606.855,97.132V90.415a10.264,10.264,0,0,1,3.07-7.5,9.987,9.987,0,0,1,7.355-3.1,8.632,8.632,0,0,1,4.662,1.245,8.5,8.5,0,0,1,3.041,3.156V67.407a1.1,1.1,0,0,1,.405-.869,1.543,1.543,0,0,1,1.042-.347,1.465,1.465,0,0,1,.984.347,1.1,1.1,0,0,1,.405.869v38.817a1.188,1.188,0,0,1-.405.9,1.393,1.393,0,0,1-.984.376,1.339,1.339,0,0,1-.985-.405,1.214,1.214,0,0,1-.405-.869v-2.779a8.053,8.053,0,0,1-3.156,3.127,9.16,9.16,0,0,1-4.72,1.274,9.677,9.677,0,0,1-7.211-3.243A10.5,10.5,0,0,1,606.855,97.132Zm2.838,0a7.936,7.936,0,0,0,2.316,5.589,7.18,7.18,0,0,0,5.386,2.461,7.443,7.443,0,0,0,5.27-2.2q2.317-2.2,2.318-3.88V90.415a7.6,7.6,0,0,0-2.288-5.733,7.324,7.324,0,0,0-10.685.231,7.774,7.774,0,0,0-2.316,5.5Z" transform="translate(-512.516 -66.191)" fill="#36abff"/>
      <path id="Caminho_6" data-name="Caminho 6" d="M685.095,126.216v-6.891a9.945,9.945,0,0,1,3.127-7.355,10.362,10.362,0,0,1,7.529-3.069,10.242,10.242,0,0,1,7.372,3.011,9.984,9.984,0,0,1,3.11,7.471,7.029,7.029,0,0,1-.376,2.519,2.442,2.442,0,0,1-1.184,1.361,4.729,4.729,0,0,1-1.472.492,15.47,15.47,0,0,1-1.876.086H687.933v2.433a7.271,7.271,0,0,0,2.606,5.849,10.05,10.05,0,0,0,6.718,2.2,9.5,9.5,0,0,0,3.526-.579,9.386,9.386,0,0,0,2.2-1.158,2.252,2.252,0,0,1,1.156-.579,1.172,1.172,0,0,1,.907.464,1.433,1.433,0,0,1,.4.926q0,1.1-2.392,2.316a12.935,12.935,0,0,1-5.907,1.216,12.669,12.669,0,0,1-8.686-2.954A9.833,9.833,0,0,1,685.095,126.216Zm2.838-4.748h12.336a5.506,5.506,0,0,0,2.606-.406,1.855,1.855,0,0,0,.637-1.679,7.985,7.985,0,0,0-2.2-5.5,7.176,7.176,0,0,0-5.56-2.432,7.581,7.581,0,0,0-5.53,2.258,7.3,7.3,0,0,0-2.288,5.386Z" transform="translate(-565.795 -95.275)" fill="#36abff"/>
      <path id="Caminho_7" data-name="Caminho 7" d="M758.43,132.993a1.5,1.5,0,0,1,.319-.9.9.9,0,0,1,.724-.435,1.327,1.327,0,0,1,.926.405l1.332.927a8.9,8.9,0,0,0,2.143.927,10.593,10.593,0,0,0,3.243.463,7.652,7.652,0,0,0,4.807-1.245,3.92,3.92,0,0,0,1.564-3.214,4.711,4.711,0,0,0-1.473-3.668,9.2,9.2,0,0,0-3.575-1.976l-4.261-1.29a8.141,8.141,0,0,1-3.634-2.217,5.907,5.907,0,0,1-1.477-4.228,7.462,7.462,0,0,1,2.23-5.328q2.229-2.316,6.573-2.316a14.95,14.95,0,0,1,5.067.84q2.346.84,2.346,1.766a1.637,1.637,0,0,1-.406.985,1.124,1.124,0,0,1-.868.521q-.059,0-2.027-.782a10.9,10.9,0,0,0-4.055-.781,6.27,6.27,0,0,0-4.662,1.562,4.852,4.852,0,0,0-1.535,3.471,3.6,3.6,0,0,0,1.478,3.067,11.622,11.622,0,0,0,3.607,1.743l4.288,1.3a7.449,7.449,0,0,1,3.631,2.425,7.162,7.162,0,0,1,1.474,4.733,6.394,6.394,0,0,1-2.374,5.27,10.364,10.364,0,0,1-6.66,1.911,13.457,13.457,0,0,1-6.226-1.3Q758.43,134.325,758.43,132.993Z" transform="translate(-615.735 -95.275)" fill="#36abff"/>
      <path id="Caminho_8" data-name="Caminho 8" d="M825.414,106.225V67.407a1.1,1.1,0,0,1,.405-.869,1.461,1.461,0,0,1,.985-.347,1.55,1.55,0,0,1,1.042.347,1.1,1.1,0,0,1,.405.869V93.484L843.193,80.4a.945.945,0,0,1,.695-.29,1.7,1.7,0,0,1,1.042.347,1.271,1.271,0,0,1,.058,1.911l-8.976,7.818,10.424,15.289a1.214,1.214,0,0,1,.174.637,1.424,1.424,0,0,1-.434.985,1.348,1.348,0,0,1-1.013.463,1.177,1.177,0,0,1-.984-.579L833.985,92.036l-5.734,4.98v9.208a1.183,1.183,0,0,1-.435.869,1.438,1.438,0,0,1-1.013.405,1.39,1.39,0,0,1-.985-.376A1.183,1.183,0,0,1,825.414,106.225Z" transform="translate(-661.349 -66.191)" fill="#36abff"/>
    </g>
    <g id="Grupo_3" data-name="Grupo 3" transform="translate(116.147 65.293)">
      <g id="Grupo_2" data-name="Grupo 2" transform="translate(0 0)">
        <path id="Caminho_9" data-name="Caminho 9" d="M207.075,137.409c-.833,0-1.506,1-1.506,2.222s.673,2.222,1.506,2.222,1.505-.994,1.505-2.222S207.906,137.409,207.075,137.409Z" transform="translate(-177.041 -114.402)" fill="#36abff"/>
        <path id="Caminho_10" data-name="Caminho 10" d="M191.189,137.409c-.832,0-1.505,1-1.505,2.222s.673,2.222,1.505,2.222,1.505-.994,1.505-2.222S192.021,137.409,191.189,137.409Z" transform="translate(-166.224 -114.402)" fill="#36abff"/>
        <path id="Caminho_11" data-name="Caminho 11" d="M143.647,65.293a27.5,27.5,0,1,0,27.5,27.5A27.5,27.5,0,0,0,143.647,65.293Zm14.887,39.665a8.185,8.185,0,0,1-9.487-3.416,10.908,10.908,0,0,0,3.579,4.648c2.88,2.035,4.007,1.729,4.391,2.427.521.942-2.235,2.4-5.321,1.939a9.69,9.69,0,0,1-8-6.526h-.1a9.688,9.688,0,0,1-8,6.526c-3.087.464-5.843-1-5.322-1.939.385-.7,1.513-.392,4.392-2.427a10.911,10.911,0,0,0,3.578-4.648,8.184,8.184,0,0,1-9.487,3.416c-2.786-.817-3.366-2.694-2.731-3.076s2.358.225,5.288-.785a7.8,7.8,0,0,0,4.945-6.244,6.55,6.55,0,0,0-.692-3.423c-.889-1.862-2.216-3.389-2.216-6.674,0-5.1,3.711-9.816,10.315-9.816,6.709,0,10.315,4.717,10.315,9.816,0,3.281-1.305,4.816-2.212,6.667a6.443,6.443,0,0,0-.738,3.431,7.792,7.792,0,0,0,4.944,6.244c2.93,1.01,4.66.4,5.289.785S161.32,104.142,158.535,104.958Z" transform="translate(-116.147 -65.293)" fill="#36abff"/>
      </g>
    </g>
  </g>
</svg>
